extratorrent.com       
http://extratorrent.com/torrent/2263899/

Plot:

7 directors, 6 stories, 1 emotion - FEAR

Show Unit: A man investigates an intruder in his house only to become the victim of a deadly game of extortion and murder.

Titisan Naya - Incarnation of Naya: During her family’s traditional sacred-dagger cleansing-ritual a skeptical teenager discovers that her ancestors are not just an old memory.

Peeper: A Peeping Tom finds his comeuppance in the backstage of a Wayang Orang dance theater. An exploration of the other meaning of ‘love blinds’ by Ray Nayoan.

The List: Boy meets girl. Boy dumps girl. It’s magic, with a twist. A scorned woman engages a ‘dukun’ to use black magic to satisfy her appetites for revenge.

The Rescue: The Rescue is a fast-paced chase through an apocalyptic Jakarta inhabited with cannibalistic ‘sub-humans’. A patrol of mobile brigadier Gegana Special Forces must lead civilian survivors to safety before they are all infected.

Dara: One woman, three men. Let the feast begin… Dara is a story about haute cuisine and the lengths to which a beautiful chef will go to in order to satisfy her customers. (Prequel to the hit movie Rumah Dara)

Info:

General
Complete name                    : Takut Faces of Fear 2008 DVDRip(EngSub) GoGo(ExtraTorrent)Takut Faces of Fear 2008 DVDRip(EngSub) GoGo(ExtraTorrent).avi
Format                           : AVI
Format/Info                      : Audio Video Interleave
File size                        : 700 MiB
Duration                         : 1h 31mn
Overall bit rate                 : 1 065 Kbps
Writing application              : VirtualDubMod 1.5.4.1 (build 2178/release)
Writing library                  : VirtualDubMod build 2178/release

Video
ID                               : 0
Format                           : MPEG-4 Visual
Format profile                   : Advanced Simple@L5
Format settings, BVOP            : Yes
Format settings, QPel            : No
Format settings, GMC             : No warppoints
Format settings, Matrix          : Custom
Codec ID                         : XVID
Codec ID/Hint                    : XviD
Duration                         : 1h 31mn
Bit rate                         : 946 Kbps
Width                            : 656 pixels
Height                           : 352 pixels
Display aspect ratio             : 1.864
Frame rate                       : 25.000 fps
Color space                      : YUV
Chroma subsampling               : 4:2:0
Bit depth                        : 8 bits
Scan type                        : Progressive
Bits/(Pixel*Frame)               : 0.164
Stream size                      : 621 MiB (89%)
Writing library                  : XviD 1.2.1 (UTC 2008-12-04)

Audio
ID                               : 1
Format                           : MPEG Audio
Format version                   : Version 1
Format profile                   : Layer 3
Mode                             : Joint stereo
Mode extension                   : MS Stereo
Codec ID                         : 55
Codec ID/Hint                    : MP3
Duration                         : 1h 31mn
Bit rate mode                    : Variable
Bit rate                         : 107 Kbps
Nominal bit rate                 : 128 Kbps
Channel(s)                       : 2 channels
Sampling rate                    : 48.0 KHz
Stream size                      : 70.2 MiB (10%)
Alignment                        : Aligned on interleaves
Interleave, duration             : 24 ms (0.60 video frame)
Interleave, preload duration     : 515 ms
Writing library                  : LAME3.98r
Encoding settings                : -m j -V 4 -q 2 -lowpass 17 --abr 128
Language                         : Indonesian
Subtitles                        : English(Hardcoded)
Genre                            : Horror
 
http://www.imdb.com/title/tt1314246/
